<svg xmlns="http://www.w3.org/2000/svg" xmlns:xlink="http://www.w3.org/1999/xlink" width="480" zoomAndPan="magnify" viewBox="0 0 360 359.999987" height="480" preserveAspectRatio="xMidYMid meet" version="1.0"><defs><clipPath id="33d3863638"><path d="M 80.074219 286.867188 L 183.4375 286.867188 L 183.4375 294.996094 L 80.074219 294.996094 Z M 80.074219 286.867188 " clip-rule="nonzero"/></clipPath><clipPath id="dc229515ef"><path d="M 82.3125 286.878906 C 112.460938 287.253906 137.886719 289.277344 152.960938 289.953125 C 163.988281 290.402344 178.164062 289.726562 181.613281 290.703125 C 182.511719 290.929688 182.8125 291.078125 183.113281 291.527344 C 183.414062 291.902344 183.488281 292.726562 183.261719 293.179688 C 183.113281 293.628906 182.4375 294.152344 181.988281 294.226562 C 181.460938 294.304688 180.710938 294.078125 180.335938 293.777344 C 180.039062 293.402344 179.738281 292.652344 179.886719 292.128906 C 179.960938 291.679688 180.414062 291.003906 180.863281 290.851562 C 181.3125 290.628906 182.136719 290.703125 182.585938 290.929688 C 182.960938 291.226562 183.488281 291.902344 183.414062 292.429688 C 183.335938 293.027344 182.8125 293.777344 181.613281 294.226562 C 175.3125 296.777344 131.960938 291.902344 113.664062 291.453125 C 101.210938 291.152344 86.585938 292.878906 82.3125 291.226562 C 81.039062 290.703125 80.363281 289.953125 80.136719 289.277344 C 79.988281 288.828125 80.210938 288.152344 80.511719 287.777344 C 80.886719 287.328125 82.3125 286.878906 82.3125 286.878906 " clip-rule="nonzero"/></clipPath><clipPath id="a37f5b80c5"><path d="M 0.0742188 0.867188 L 103.4375 0.867188 L 103.4375 8.996094 L 0.0742188 8.996094 Z M 0.0742188 0.867188 " clip-rule="nonzero"/></clipPath><clipPath id="b071fcd401"><path d="M 2.3125 0.878906 C 32.460938 1.253906 57.886719 3.277344 72.960938 3.953125 C 83.988281 4.402344 98.164062 3.726562 101.613281 4.703125 C 102.511719 4.929688 102.8125 5.078125 103.113281 5.527344 C 103.414062 5.902344 103.488281 6.726562 103.261719 7.179688 C 103.113281 7.628906 102.4375 8.152344 101.988281 8.226562 C 101.460938 8.304688 100.710938 8.078125 100.335938 7.777344 C 100.039062 7.402344 99.738281 6.652344 99.886719 6.128906 C 99.960938 5.679688 100.414062 5.003906 100.863281 4.851562 C 101.3125 4.628906 102.136719 4.703125 102.585938 4.929688 C 102.960938 5.226562 103.488281 5.902344 103.414062 6.429688 C 103.335938 7.027344 102.8125 7.777344 101.613281 8.226562 C 95.3125 10.777344 51.960938 5.902344 33.664062 5.453125 C 21.210938 5.152344 6.585938 6.878906 2.3125 5.226562 C 1.039062 4.703125 0.363281 3.953125 0.136719 3.277344 C -0.0117188 2.828125 0.210938 2.152344 0.511719 1.777344 C 0.886719 1.328125 2.3125 0.878906 2.3125 0.878906 " clip-rule="nonzero"/></clipPath><clipPath id="906ca57ef3"><rect x="0" width="104" y="0" height="9"/></clipPath><clipPath id="dd9d612f02"><path d="M 104.691406 93.863281 L 117.480469 93.863281 L 117.480469 290.542969 L 104.691406 290.542969 Z M 104.691406 93.863281 " clip-rule="nonzero"/></clipPath><clipPath id="3efe0fd758"><path d="M 104.714844 287.953125 C 106.886719 271.203125 106.8125 268.824219 106.964844 262.417969 C 107.1875 244.6875 105.238281 189.761719 106.664062 162.421875 C 107.714844 143.375 111.011719 126.378906 111.914062 114.0625 C 112.511719 106.511719 111.3125 98.464844 112.664062 95.671875 C 113.261719 94.523438 114.3125 94.03125 115.0625 93.949219 C 115.664062 93.949219 116.5625 94.6875 116.9375 95.179688 C 117.164062 95.671875 117.238281 96.246094 117.238281 96.824219 C 117.164062 97.316406 116.9375 97.890625 116.5625 98.300781 C 116.113281 98.710938 115.136719 99.121094 114.539062 99.039062 C 113.863281 98.875 113.113281 98.136719 112.8125 97.5625 C 112.511719 97.070312 112.4375 96.492188 112.664062 96 C 112.886719 95.261719 114.089844 94.113281 114.761719 93.949219 C 115.289062 93.867188 115.8125 94.03125 116.1875 94.441406 C 116.714844 94.851562 117.011719 95.425781 117.238281 96.492188 C 117.761719 99.285156 117.011719 105.359375 116.488281 112.011719 C 115.589844 124.078125 112.0625 144.851562 111.3125 162.421875 C 110.414062 181.796875 111.988281 204.128906 111.988281 223.503906 C 111.988281 241.15625 112.4375 262.253906 111.464844 274.078125 C 110.863281 280.5625 110.113281 286.96875 109.0625 289.101562 C 108.6875 289.839844 108.3125 290.085938 107.789062 290.335938 C 107.339844 290.5 106.664062 290.582031 106.214844 290.335938 C 105.539062 289.921875 104.714844 287.953125 104.714844 287.953125 " clip-rule="nonzero"/></clipPath><clipPath id="7d0be55da7"><path d="M 0.691406 0.863281 L 13.480469 0.863281 L 13.480469 197.542969 L 0.691406 197.542969 Z M 0.691406 0.863281 " clip-rule="nonzero"/></clipPath><clipPath id="79fe2da140"><path d="M 0.714844 194.953125 C 2.886719 178.203125 2.8125 175.824219 2.964844 169.417969 C 3.1875 151.6875 1.238281 96.761719 2.664062 69.421875 C 3.714844 50.375 7.011719 33.378906 7.914062 21.0625 C 8.511719 13.511719 7.3125 5.464844 8.664062 2.671875 C 9.261719 1.523438 10.3125 1.03125 11.0625 0.949219 C 11.664062 0.949219 12.5625 1.6875 12.9375 2.179688 C 13.164062 2.671875 13.238281 3.246094 13.238281 3.824219 C 13.164062 4.316406 12.9375 4.890625 12.5625 5.300781 C 12.113281 5.710938 11.136719 6.121094 10.539062 6.039062 C 9.863281 5.875 9.113281 5.136719 8.8125 4.5625 C 8.511719 4.070312 8.4375 3.492188 8.664062 3 C 8.886719 2.261719 10.089844 1.113281 10.761719 0.949219 C 11.289062 0.867188 11.8125 1.03125 12.1875 1.441406 C 12.714844 1.851562 13.011719 2.425781 13.238281 3.492188 C 13.761719 6.285156 13.011719 12.359375 12.488281 19.011719 C 11.589844 31.078125 8.0625 51.851562 7.3125 69.421875 C 6.414062 88.796875 7.988281 111.128906 7.988281 130.503906 C 7.988281 148.15625 8.4375 169.253906 7.464844 181.078125 C 6.863281 187.5625 6.113281 193.96875 5.0625 196.101562 C 4.6875 196.839844 4.3125 197.085938 3.789062 197.335938 C 3.339844 197.5 2.664062 197.582031 2.214844 197.335938 C 1.539062 196.921875 0.714844 194.953125 0.714844 194.953125 " clip-rule="nonzero"/></clipPath><clipPath id="22185e27b1"><rect x="0" width="14" y="0" height="198"/></clipPath><clipPath id="9069e2521a"><path d="M 116.152344 93.863281 L 128.941406 93.863281 L 128.941406 290.542969 L 116.152344 290.542969 Z M 116.152344 93.863281 " clip-rule="nonzero"/></clipPath><clipPath id="7f92e19bce"><path d="M 116.175781 287.953125 C 118.351562 271.203125 118.273438 268.824219 118.425781 262.417969 C 118.648438 244.6875 116.699219 189.761719 118.125 162.421875 C 119.175781 143.375 122.476562 126.378906 123.375 114.0625 C 123.976562 106.511719 122.773438 98.464844 124.125 95.671875 C 124.726562 94.523438 125.773438 94.03125 126.523438 93.949219 C 127.125 93.949219 128.023438 94.6875 128.398438 95.179688 C 128.625 95.671875 128.699219 96.246094 128.699219 96.824219 C 128.625 97.316406 128.398438 97.890625 128.023438 98.300781 C 127.574219 98.710938 126.601562 99.121094 126 99.039062 C 125.324219 98.875 124.574219 98.136719 124.273438 97.5625 C 123.976562 97.070312 123.898438 96.492188 124.125 96 C 124.351562 95.261719 125.550781 94.113281 126.226562 93.949219 C 126.75 93.867188 127.273438 94.03125 127.648438 94.441406 C 128.175781 94.851562 128.476562 95.425781 128.699219 96.492188 C 129.226562 99.285156 128.476562 105.359375 127.949219 112.011719 C 127.050781 124.078125 123.523438 144.851562 122.773438 162.421875 C 121.875 181.796875 123.449219 204.128906 123.449219 223.503906 C 123.449219 241.15625 123.898438 262.253906 122.925781 274.078125 C 122.324219 280.5625 121.574219 286.96875 120.523438 289.101562 C 120.148438 289.839844 119.773438 290.085938 119.25 290.335938 C 118.800781 290.5 118.125 290.582031 117.675781 290.335938 C 117 289.921875 116.175781 287.953125 116.175781 287.953125 " clip-rule="nonzero"/></clipPath><clipPath id="a0d45cf104"><path d="M 0.160156 0.863281 L 12.941406 0.863281 L 12.941406 197.542969 L 0.160156 197.542969 Z M 0.160156 0.863281 " clip-rule="nonzero"/></clipPath><clipPath id="f9efe4839c"><path d="M 0.175781 194.953125 C 2.351562 178.203125 2.273438 175.824219 2.425781 169.417969 C 2.648438 151.6875 0.699219 96.761719 2.125 69.421875 C 3.175781 50.375 6.476562 33.378906 7.375 21.0625 C 7.976562 13.511719 6.773438 5.464844 8.125 2.671875 C 8.726562 1.523438 9.773438 1.03125 10.523438 0.949219 C 11.125 0.949219 12.023438 1.6875 12.398438 2.179688 C 12.625 2.671875 12.699219 3.246094 12.699219 3.824219 C 12.625 4.316406 12.398438 4.890625 12.023438 5.300781 C 11.574219 5.710938 10.601562 6.121094 10 6.039062 C 9.324219 5.875 8.574219 5.136719 8.273438 4.5625 C 7.976562 4.070312 7.898438 3.492188 8.125 3 C 8.351562 2.261719 9.550781 1.113281 10.226562 0.949219 C 10.75 0.867188 11.273438 1.03125 11.648438 1.441406 C 12.175781 1.851562 12.476562 2.425781 12.699219 3.492188 C 13.226562 6.285156 12.476562 12.359375 11.949219 19.011719 C 11.050781 31.078125 7.523438 51.851562 6.773438 69.421875 C 5.875 88.796875 7.449219 111.128906 7.449219 130.503906 C 7.449219 148.15625 7.898438 169.253906 6.925781 181.078125 C 6.324219 187.5625 5.574219 193.96875 4.523438 196.101562 C 4.148438 196.839844 3.773438 197.085938 3.25 197.335938 C 2.800781 197.5 2.125 197.582031 1.675781 197.335938 C 1 196.921875 0.175781 194.953125 0.175781 194.953125 " clip-rule="nonzero"/></clipPath><clipPath id="0d6ad483a3"><rect x="0" width="13" y="0" height="198"/></clipPath><clipPath id="84cb9dc2d2"><path d="M 123.730469 102.910156 L 295.796875 102.910156 L 295.796875 129.289062 L 123.730469 129.289062 Z M 123.730469 102.910156 " clip-rule="nonzero"/></clipPath><clipPath id="72aee35f39"><path d="M 126.386719 121.125 C 214.871094 121.351562 225.628906 122.550781 239.769531 122.851562 C 255.558594 123.226562 283.40625 121.648438 289.910156 122.773438 C 291.644531 123.074219 292.949219 123.675781 292.949219 123.898438 C 292.859375 124.125 290.777344 124.648438 289.996094 124.125 C 288.351562 123.148438 287.394531 117.449219 286.789062 114.75 C 286.355469 112.726562 288.003906 110.925781 286.09375 109.5 C 276.636719 102.226562 142.089844 112.351562 130.375 109.800781 C 128.816406 109.5 128.292969 109.199219 127.859375 108.675781 C 127.425781 108.226562 127.253906 107.550781 127.253906 107.023438 C 127.339844 106.5 127.601562 105.824219 128.035156 105.449219 C 128.554688 104.925781 129.855469 104.398438 130.722656 104.476562 C 131.589844 104.550781 132.71875 105.226562 133.152344 105.898438 C 133.5 106.574219 133.5 107.773438 133.152344 108.375 C 132.71875 109.050781 131.589844 109.800781 130.722656 109.800781 C 129.769531 109.800781 127.949219 108.898438 127.515625 108.148438 C 127.167969 107.476562 127.339844 106.273438 127.859375 105.675781 C 128.292969 105 128.816406 104.851562 130.375 104.476562 C 142.089844 101.925781 267.441406 103.125 284.53125 104.023438 C 287.914062 104.175781 289.390625 103.800781 290.691406 104.625 C 291.734375 105.375 291.90625 106.574219 292.339844 108 C 292.949219 110.25 292.601562 114.75 293.207031 116.773438 C 293.554688 117.976562 294.25 118.351562 294.683594 119.476562 C 295.203125 121.125 296.15625 124.273438 295.550781 125.773438 C 295.203125 126.824219 294.855469 127.5 293.292969 128.101562 C 287.136719 130.5 255.039062 128.398438 238.292969 127.949219 C 224.242188 127.574219 214.4375 126.300781 199.429688 125.925781 C 178.871094 125.324219 132.980469 126.824219 126.386719 125.773438 C 125.34375 125.625 125.085938 125.550781 124.652344 125.175781 C 124.21875 124.875 123.785156 124.273438 123.785156 123.75 C 123.695312 123.148438 124.128906 122.175781 124.652344 121.726562 C 125.085938 121.351562 126.386719 121.125 126.386719 121.125 " clip-rule="nonzero"/></clipPath><clipPath id="d20882fbab"><path d="M 0.730469 0.910156 L 172.796875 0.910156 L 172.796875 27.289062 L 0.730469 27.289062 Z M 0.730469 0.910156 " clip-rule="nonzero"/></clipPath><clipPath id="805875d645"><path d="M 3.386719 19.125 C 91.871094 19.351562 102.628906 20.550781 116.769531 20.851562 C 132.558594 21.226562 160.40625 19.648438 166.910156 20.773438 C 168.644531 21.074219 169.949219 21.675781 169.949219 21.898438 C 169.859375 22.125 167.777344 22.648438 166.996094 22.125 C 165.351562 21.148438 164.394531 15.449219 163.789062 12.75 C 163.355469 10.726562 165.003906 8.925781 163.09375 7.5 C 153.636719 0.226562 19.089844 10.351562 7.375 7.800781 C 5.816406 7.5 5.292969 7.199219 4.859375 6.675781 C 4.425781 6.226562 4.253906 5.550781 4.253906 5.023438 C 4.339844 4.5 4.601562 3.824219 5.035156 3.449219 C 5.554688 2.925781 6.855469 2.398438 7.722656 2.476562 C 8.589844 2.550781 9.71875 3.226562 10.152344 3.898438 C 10.5 4.574219 10.5 5.773438 10.152344 6.375 C 9.71875 7.050781 8.589844 7.800781 7.722656 7.800781 C 6.769531 7.800781 4.949219 6.898438 4.515625 6.148438 C 4.167969 5.476562 4.339844 4.273438 4.859375 3.675781 C 5.292969 3 5.816406 2.851562 7.375 2.476562 C 19.089844 -0.0742188 144.441406 1.125 161.53125 2.023438 C 164.914062 2.175781 166.390625 1.800781 167.691406 2.625 C 168.734375 3.375 168.90625 4.574219 169.339844 6 C 169.949219 8.25 169.601562 12.75 170.207031 14.773438 C 170.554688 15.976562 171.25 16.351562 171.683594 17.476562 C 172.203125 19.125 173.15625 22.273438 172.550781 23.773438 C 172.203125 24.824219 171.855469 25.5 170.292969 26.101562 C 164.136719 28.5 132.039062 26.398438 115.292969 25.949219 C 101.242188 25.574219 91.4375 24.300781 76.429688 23.925781 C 55.871094 23.324219 9.980469 24.824219 3.386719 23.773438 C 2.34375 23.625 2.085938 23.550781 1.652344 23.175781 C 1.21875 22.875 0.785156 22.273438 0.785156 21.75 C 0.695312 21.148438 1.128906 20.175781 1.652344 19.726562 C 2.085938 19.351562 3.386719 19.125 3.386719 19.125 " clip-rule="nonzero"/></clipPath><clipPath id="9b2048fe98"><rect x="0" width="173" y="0" height="28"/></clipPath><clipPath id="808045e535"><path d="M 98.117188 103.90625 L 117.335938 103.90625 L 117.335938 125.046875 L 98.117188 125.046875 Z M 98.117188 103.90625 " clip-rule="nonzero"/></clipPath><clipPath id="af3a908a08"><path d="M 114.988281 109.273438 C 101.789062 110.699219 102.011719 117.148438 103.738281 119.023438 C 105.539062 120.898438 112.964844 118.425781 114.613281 119.699219 C 115.4375 120.449219 115.738281 122.023438 115.4375 122.773438 C 115.136719 123.601562 113.488281 124.425781 112.664062 124.425781 C 112.136719 124.5 111.539062 124.125 111.164062 123.75 C 110.714844 123.226562 110.261719 122.101562 110.339844 121.425781 C 110.488281 120.675781 111.238281 119.699219 111.839844 119.398438 C 112.511719 119.101562 113.714844 119.101562 114.3125 119.550781 C 115.0625 120.074219 115.738281 121.726562 115.511719 122.550781 C 115.289062 123.375 114.238281 124.050781 112.964844 124.5 C 110.5625 125.25 103.589844 125.175781 101.261719 124.273438 C 100.0625 123.898438 99.539062 123.523438 99.011719 122.398438 C 97.8125 119.773438 97.964844 109.875 98.714844 107.175781 C 99.011719 106.125 99.3125 105.601562 99.988281 105.074219 C 100.8125 104.476562 101.9375 104.25 103.4375 104.023438 C 106.289062 103.726562 113.5625 104.101562 115.511719 104.773438 C 116.261719 105 116.5625 105.300781 116.863281 105.675781 C 117.164062 106.125 117.3125 106.800781 117.238281 107.25 C 117.164062 107.773438 116.863281 108.375 116.488281 108.75 C 116.113281 109.050781 114.988281 109.273438 114.988281 109.273438 " clip-rule="nonzero"/></clipPath><clipPath id="3cddc26bc7"><path d="M 0.117188 0.90625 L 19.335938 0.90625 L 19.335938 22.046875 L 0.117188 22.046875 Z M 0.117188 0.90625 " clip-rule="nonzero"/></clipPath><clipPath id="5f219e44c6"><path d="M 16.988281 6.273438 C 3.789062 7.699219 4.011719 14.148438 5.738281 16.023438 C 7.539062 17.898438 14.964844 15.425781 16.613281 16.699219 C 17.4375 17.449219 17.738281 19.023438 17.4375 19.773438 C 17.136719 20.601562 15.488281 21.425781 14.664062 21.425781 C 14.136719 21.5 13.539062 21.125 13.164062 20.75 C 12.714844 20.226562 12.261719 19.101562 12.339844 18.425781 C 12.488281 17.675781 13.238281 16.699219 13.839844 16.398438 C 14.511719 16.101562 15.714844 16.101562 16.3125 16.550781 C 17.0625 17.074219 17.738281 18.726562 17.511719 19.550781 C 17.289062 20.375 16.238281 21.050781 14.964844 21.5 C 12.5625 22.25 5.589844 22.175781 3.261719 21.273438 C 2.0625 20.898438 1.539062 20.523438 1.011719 19.398438 C -0.1875 16.773438 -0.0351562 6.875 0.714844 4.175781 C 1.011719 3.125 1.3125 2.601562 1.988281 2.074219 C 2.8125 1.476562 3.9375 1.25 5.4375 1.023438 C 8.289062 0.726562 15.5625 1.101562 17.511719 1.773438 C 18.261719 2 18.5625 2.300781 18.863281 2.675781 C 19.164062 3.125 19.3125 3.800781 19.238281 4.25 C 19.164062 4.773438 18.863281 5.375 18.488281 5.75 C 18.113281 6.050781 16.988281 6.273438 16.988281 6.273438 " clip-rule="nonzero"/></clipPath><clipPath id="18dffae1c1"><rect x="0" width="20" y="0" height="23"/></clipPath><clipPath id="3bdd6f13db"><path d="M 112.722656 93.296875 L 128.226562 93.296875 L 128.226562 98.609375 L 112.722656 98.609375 Z M 112.722656 93.296875 " clip-rule="nonzero"/></clipPath><clipPath id="1691afd1b3"><path d="M 125.851562 98.476562 C 113.550781 98.101562 112.949219 97.5 112.875 96.824219 C 112.726562 96.074219 113.25 94.5 113.925781 94.050781 C 114.601562 93.675781 116.25 93.898438 116.851562 94.425781 C 117.375 94.800781 117.75 95.925781 117.601562 96.523438 C 117.375 97.273438 116.175781 98.398438 115.425781 98.550781 C 114.75 98.699219 113.773438 98.25 113.324219 97.726562 C 112.875 97.199219 112.574219 96.148438 112.875 95.550781 C 113.101562 94.800781 114 94.125 115.199219 93.75 C 117.523438 93 125.175781 93.300781 126.976562 94.125 C 127.648438 94.425781 127.875 94.875 128.023438 95.324219 C 128.25 95.851562 128.324219 96.523438 128.023438 96.976562 C 127.726562 97.574219 125.851562 98.476562 125.851562 98.476562 " clip-rule="nonzero"/></clipPath><clipPath id="6dd4708563"><path d="M 0.722656 0.296875 L 16.226562 0.296875 L 16.226562 5.609375 L 0.722656 5.609375 Z M 0.722656 0.296875 " clip-rule="nonzero"/></clipPath><clipPath id="4b41cfe29e"><path d="M 13.851562 5.476562 C 1.550781 5.101562 0.949219 4.5 0.875 3.824219 C 0.726562 3.074219 1.25 1.5 1.925781 1.050781 C 2.601562 0.675781 4.25 0.898438 4.851562 1.425781 C 5.375 1.800781 5.75 2.925781 5.601562 3.523438 C 5.375 4.273438 4.175781 5.398438 3.425781 5.550781 C 2.75 5.699219 1.773438 5.25 1.324219 4.726562 C 0.875 4.199219 0.574219 3.148438 0.875 2.550781 C 1.101562 1.800781 2 1.125 3.199219 0.75 C 5.523438 0 13.175781 0.300781 14.976562 1.125 C 15.648438 1.425781 15.875 1.875 16.023438 2.324219 C 16.25 2.851562 16.324219 3.523438 16.023438 3.976562 C 15.726562 4.574219 13.851562 5.476562 13.851562 5.476562 " clip-rule="nonzero"/></clipPath><clipPath id="daf702af95"><rect x="0" width="17" y="0" height="6"/></clipPath></defs><g clip-path="url(#33d3863638)"><g clip-path="url(#dc229515ef)"><g transform="matrix(1, 0, 0, 1, 80, 286)"><g clip-path="url(#906ca57ef3)"><g clip-path="url(#a37f5b80c5)"><g clip-path="url(#b071fcd401)"><rect x="-159.2" width="518.4" fill="#1e1e1e" height="518.399981" y="-365.199997" fill-opacity="1"/></g></g></g></g></g></g><g clip-path="url(#dd9d612f02)"><g clip-path="url(#3efe0fd758)"><g transform="matrix(1, 0, 0, 1, 104, 93)"><g clip-path="url(#22185e27b1)"><g clip-path="url(#7d0be55da7)"><g clip-path="url(#79fe2da140)"><rect x="-183.2" width="518.4" fill="#1e1e1e" height="518.399981" y="-172.199997" fill-opacity="1"/></g></g></g></g></g></g><g clip-path="url(#9069e2521a)"><g clip-path="url(#7f92e19bce)"><g transform="matrix(1, 0, 0, 1, 116, 93)"><g clip-path="url(#0d6ad483a3)"><g clip-path="url(#a0d45cf104)"><g clip-path="url(#f9efe4839c)"><rect x="-195.2" width="518.4" fill="#1e1e1e" height="518.399981" y="-172.199997" fill-opacity="1"/></g></g></g></g></g></g><g clip-path="url(#84cb9dc2d2)"><g clip-path="url(#72aee35f39)"><g transform="matrix(1, 0, 0, 1, 123, 102)"><g clip-path="url(#9b2048fe98)"><g clip-path="url(#d20882fbab)"><g clip-path="url(#805875d645)"><rect x="-202.2" width="518.4" fill="#1e1e1e" height="518.399981" y="-181.199997" fill-opacity="1"/></g></g></g></g></g></g><g clip-path="url(#808045e535)"><g clip-path="url(#af3a908a08)"><g transform="matrix(1, 0, 0, 1, 98, 103)"><g clip-path="url(#18dffae1c1)"><g clip-path="url(#3cddc26bc7)"><g clip-path="url(#5f219e44c6)"><rect x="-177.2" width="518.4" fill="#1e1e1e" height="518.399981" y="-182.199997" fill-opacity="1"/></g></g></g></g></g></g><g clip-path="url(#3bdd6f13db)"><g clip-path="url(#1691afd1b3)"><g transform="matrix(1, 0, 0, 1, 112, 93)"><g clip-path="url(#daf702af95)"><g clip-path="url(#6dd4708563)"><g clip-path="url(#4b41cfe29e)"><rect x="-191.2" width="518.4" fill="#1e1e1e" height="518.399981" y="-172.199997" fill-opacity="1"/></g></g></g></g></g></g></svg>