<svg xmlns="http://www.w3.org/2000/svg" xmlns:xlink="http://www.w3.org/1999/xlink" width="480" zoomAndPan="magnify" viewBox="0 0 360 359.999987" height="480" preserveAspectRatio="xMidYMid meet" version="1.0"><defs><clipPath id="eeb22eee8b"><path d="M 80.074219 286.867188 L 183.4375 286.867188 L 183.4375 294.996094 L 80.074219 294.996094 Z M 80.074219 286.867188 " clip-rule="nonzero"/></clipPath><clipPath id="9a07c21b00"><path d="M 82.3125 286.878906 C 112.460938 287.253906 137.886719 289.277344 152.960938 289.953125 C 163.988281 290.402344 178.164062 289.726562 181.613281 290.703125 C 182.511719 290.929688 182.8125 291.078125 183.113281 291.527344 C 183.414062 291.902344 183.488281 292.726562 183.261719 293.179688 C 183.113281 293.628906 182.4375 294.152344 181.988281 294.226562 C 181.460938 294.304688 180.710938 294.078125 180.335938 293.777344 C 180.039062 293.402344 179.738281 292.652344 179.886719 292.128906 C 179.960938 291.679688 180.414062 291.003906 180.863281 290.851562 C 181.3125 290.628906 182.136719 290.703125 182.585938 290.929688 C 182.960938 291.226562 183.488281 291.902344 183.414062 292.429688 C 183.335938 293.027344 182.8125 293.777344 181.613281 294.226562 C 175.3125 296.777344 131.960938 291.902344 113.664062 291.453125 C 101.210938 291.152344 86.585938 292.878906 82.3125 291.226562 C 81.039062 290.703125 80.363281 289.953125 80.136719 289.277344 C 79.988281 288.828125 80.210938 288.152344 80.511719 287.777344 C 80.886719 287.328125 82.3125 286.878906 82.3125 286.878906 " clip-rule="nonzero"/></clipPath><clipPath id="065373945d"><path d="M 0.0742188 0.867188 L 103.4375 0.867188 L 103.4375 8.996094 L 0.0742188 8.996094 Z M 0.0742188 0.867188 " clip-rule="nonzero"/></clipPath><clipPath id="1648796f40"><path d="M 2.3125 0.878906 C 32.460938 1.253906 57.886719 3.277344 72.960938 3.953125 C 83.988281 4.402344 98.164062 3.726562 101.613281 4.703125 C 102.511719 4.929688 102.8125 5.078125 103.113281 5.527344 C 103.414062 5.902344 103.488281 6.726562 103.261719 7.179688 C 103.113281 7.628906 102.4375 8.152344 101.988281 8.226562 C 101.460938 8.304688 100.710938 8.078125 100.335938 7.777344 C 100.039062 7.402344 99.738281 6.652344 99.886719 6.128906 C 99.960938 5.679688 100.414062 5.003906 100.863281 4.851562 C 101.3125 4.628906 102.136719 4.703125 102.585938 4.929688 C 102.960938 5.226562 103.488281 5.902344 103.414062 6.429688 C 103.335938 7.027344 102.8125 7.777344 101.613281 8.226562 C 95.3125 10.777344 51.960938 5.902344 33.664062 5.453125 C 21.210938 5.152344 6.585938 6.878906 2.3125 5.226562 C 1.039062 4.703125 0.363281 3.953125 0.136719 3.277344 C -0.0117188 2.828125 0.210938 2.152344 0.511719 1.777344 C 0.886719 1.328125 2.3125 0.878906 2.3125 0.878906 " clip-rule="nonzero"/></clipPath><clipPath id="9907526032"><rect x="0" width="104" y="0" height="9"/></clipPath><clipPath id="0d8a0f14d3"><path d="M 104.691406 93.863281 L 117.480469 93.863281 L 117.480469 290.542969 L 104.691406 290.542969 Z M 104.691406 93.863281 " clip-rule="nonzero"/></clipPath><clipPath id="e4174be383"><path d="M 104.714844 287.953125 C 106.886719 271.203125 106.8125 268.824219 106.964844 262.417969 C 107.1875 244.6875 105.238281 189.761719 106.664062 162.421875 C 107.714844 143.375 111.011719 126.378906 111.914062 114.0625 C 112.511719 106.511719 111.3125 98.464844 112.664062 95.671875 C 113.261719 94.523438 114.3125 94.03125 115.0625 93.949219 C 115.664062 93.949219 116.5625 94.6875 116.9375 95.179688 C 117.164062 95.671875 117.238281 96.246094 117.238281 96.824219 C 117.164062 97.316406 116.9375 97.890625 116.5625 98.300781 C 116.113281 98.710938 115.136719 99.121094 114.539062 99.039062 C 113.863281 98.875 113.113281 98.136719 112.8125 97.5625 C 112.511719 97.070312 112.4375 96.492188 112.664062 96 C 112.886719 95.261719 114.089844 94.113281 114.761719 93.949219 C 115.289062 93.867188 115.8125 94.03125 116.1875 94.441406 C 116.714844 94.851562 117.011719 95.425781 117.238281 96.492188 C 117.761719 99.285156 117.011719 105.359375 116.488281 112.011719 C 115.589844 124.078125 112.0625 144.851562 111.3125 162.421875 C 110.414062 181.796875 111.988281 204.128906 111.988281 223.503906 C 111.988281 241.15625 112.4375 262.253906 111.464844 274.078125 C 110.863281 280.5625 110.113281 286.96875 109.0625 289.101562 C 108.6875 289.839844 108.3125 290.085938 107.789062 290.335938 C 107.339844 290.5 106.664062 290.582031 106.214844 290.335938 C 105.539062 289.921875 104.714844 287.953125 104.714844 287.953125 " clip-rule="nonzero"/></clipPath><clipPath id="ec0e6b9f06"><path d="M 0.691406 0.863281 L 13.480469 0.863281 L 13.480469 197.542969 L 0.691406 197.542969 Z M 0.691406 0.863281 " clip-rule="nonzero"/></clipPath><clipPath id="d44acb77d6"><path d="M 0.714844 194.953125 C 2.886719 178.203125 2.8125 175.824219 2.964844 169.417969 C 3.1875 151.6875 1.238281 96.761719 2.664062 69.421875 C 3.714844 50.375 7.011719 33.378906 7.914062 21.0625 C 8.511719 13.511719 7.3125 5.464844 8.664062 2.671875 C 9.261719 1.523438 10.3125 1.03125 11.0625 0.949219 C 11.664062 0.949219 12.5625 1.6875 12.9375 2.179688 C 13.164062 2.671875 13.238281 3.246094 13.238281 3.824219 C 13.164062 4.316406 12.9375 4.890625 12.5625 5.300781 C 12.113281 5.710938 11.136719 6.121094 10.539062 6.039062 C 9.863281 5.875 9.113281 5.136719 8.8125 4.5625 C 8.511719 4.070312 8.4375 3.492188 8.664062 3 C 8.886719 2.261719 10.089844 1.113281 10.761719 0.949219 C 11.289062 0.867188 11.8125 1.03125 12.1875 1.441406 C 12.714844 1.851562 13.011719 2.425781 13.238281 3.492188 C 13.761719 6.285156 13.011719 12.359375 12.488281 19.011719 C 11.589844 31.078125 8.0625 51.851562 7.3125 69.421875 C 6.414062 88.796875 7.988281 111.128906 7.988281 130.503906 C 7.988281 148.15625 8.4375 169.253906 7.464844 181.078125 C 6.863281 187.5625 6.113281 193.96875 5.0625 196.101562 C 4.6875 196.839844 4.3125 197.085938 3.789062 197.335938 C 3.339844 197.5 2.664062 197.582031 2.214844 197.335938 C 1.539062 196.921875 0.714844 194.953125 0.714844 194.953125 " clip-rule="nonzero"/></clipPath><clipPath id="dc3d92cdae"><rect x="0" width="14" y="0" height="198"/></clipPath><clipPath id="3826abff73"><path d="M 116.152344 93.863281 L 128.941406 93.863281 L 128.941406 290.542969 L 116.152344 290.542969 Z M 116.152344 93.863281 " clip-rule="nonzero"/></clipPath><clipPath id="4b4e318237"><path d="M 116.175781 287.953125 C 118.351562 271.203125 118.273438 268.824219 118.425781 262.417969 C 118.648438 244.6875 116.699219 189.761719 118.125 162.421875 C 119.175781 143.375 122.476562 126.378906 123.375 114.0625 C 123.976562 106.511719 122.773438 98.464844 124.125 95.671875 C 124.726562 94.523438 125.773438 94.03125 126.523438 93.949219 C 127.125 93.949219 128.023438 94.6875 128.398438 95.179688 C 128.625 95.671875 128.699219 96.246094 128.699219 96.824219 C 128.625 97.316406 128.398438 97.890625 128.023438 98.300781 C 127.574219 98.710938 126.601562 99.121094 126 99.039062 C 125.324219 98.875 124.574219 98.136719 124.273438 97.5625 C 123.976562 97.070312 123.898438 96.492188 124.125 96 C 124.351562 95.261719 125.550781 94.113281 126.226562 93.949219 C 126.75 93.867188 127.273438 94.03125 127.648438 94.441406 C 128.175781 94.851562 128.476562 95.425781 128.699219 96.492188 C 129.226562 99.285156 128.476562 105.359375 127.949219 112.011719 C 127.050781 124.078125 123.523438 144.851562 122.773438 162.421875 C 121.875 181.796875 123.449219 204.128906 123.449219 223.503906 C 123.449219 241.15625 123.898438 262.253906 122.925781 274.078125 C 122.324219 280.5625 121.574219 286.96875 120.523438 289.101562 C 120.148438 289.839844 119.773438 290.085938 119.25 290.335938 C 118.800781 290.5 118.125 290.582031 117.675781 290.335938 C 117 289.921875 116.175781 287.953125 116.175781 287.953125 " clip-rule="nonzero"/></clipPath><clipPath id="dd5f766ccc"><path d="M 0.160156 0.863281 L 12.941406 0.863281 L 12.941406 197.542969 L 0.160156 197.542969 Z M 0.160156 0.863281 " clip-rule="nonzero"/></clipPath><clipPath id="e1fb1b2d55"><path d="M 0.175781 194.953125 C 2.351562 178.203125 2.273438 175.824219 2.425781 169.417969 C 2.648438 151.6875 0.699219 96.761719 2.125 69.421875 C 3.175781 50.375 6.476562 33.378906 7.375 21.0625 C 7.976562 13.511719 6.773438 5.464844 8.125 2.671875 C 8.726562 1.523438 9.773438 1.03125 10.523438 0.949219 C 11.125 0.949219 12.023438 1.6875 12.398438 2.179688 C 12.625 2.671875 12.699219 3.246094 12.699219 3.824219 C 12.625 4.316406 12.398438 4.890625 12.023438 5.300781 C 11.574219 5.710938 10.601562 6.121094 10 6.039062 C 9.324219 5.875 8.574219 5.136719 8.273438 4.5625 C 7.976562 4.070312 7.898438 3.492188 8.125 3 C 8.351562 2.261719 9.550781 1.113281 10.226562 0.949219 C 10.75 0.867188 11.273438 1.03125 11.648438 1.441406 C 12.175781 1.851562 12.476562 2.425781 12.699219 3.492188 C 13.226562 6.285156 12.476562 12.359375 11.949219 19.011719 C 11.050781 31.078125 7.523438 51.851562 6.773438 69.421875 C 5.875 88.796875 7.449219 111.128906 7.449219 130.503906 C 7.449219 148.15625 7.898438 169.253906 6.925781 181.078125 C 6.324219 187.5625 5.574219 193.96875 4.523438 196.101562 C 4.148438 196.839844 3.773438 197.085938 3.25 197.335938 C 2.800781 197.5 2.125 197.582031 1.675781 197.335938 C 1 196.921875 0.175781 194.953125 0.175781 194.953125 " clip-rule="nonzero"/></clipPath><clipPath id="82f71f6f14"><rect x="0" width="13" y="0" height="198"/></clipPath><clipPath id="77f182348f"><path d="M 261.917969 123.132812 L 266.414062 123.132812 L 266.414062 154.613281 L 261.917969 154.613281 Z M 261.917969 123.132812 " clip-rule="nonzero"/></clipPath><clipPath id="508e8be083"><path d="M 265.726562 124.382812 C 266.25 153.957031 266.101562 154.160156 265.800781 154.367188 C 265.5 154.570312 264.824219 154.636719 264.523438 154.5 C 264.148438 154.367188 263.699219 153.957031 263.625 153.621094 C 263.550781 153.28125 263.699219 152.738281 264 152.464844 C 264.300781 152.195312 264.898438 152.058594 265.273438 152.058594 C 265.648438 152.128906 266.101562 152.464844 266.324219 152.804688 C 266.476562 153.144531 266.398438 153.6875 266.25 153.957031 C 266.023438 154.296875 265.5 154.636719 265.125 154.570312 C 264.601562 154.570312 264 154.160156 263.625 153.347656 C 261.976562 150.023438 261.226562 127.367188 262.800781 124.25 C 263.25 123.503906 263.851562 123.164062 264.375 123.164062 C 264.824219 123.230469 265.726562 124.382812 265.726562 124.382812 " clip-rule="nonzero"/></clipPath><clipPath id="d9bd4a862a"><path d="M 0.917969 0.132812 L 5.414062 0.132812 L 5.414062 31.613281 L 0.917969 31.613281 Z M 0.917969 0.132812 " clip-rule="nonzero"/></clipPath><clipPath id="d35361fccb"><path d="M 4.726562 1.382812 C 5.25 30.957031 5.101562 31.160156 4.800781 31.367188 C 4.5 31.570312 3.824219 31.636719 3.523438 31.5 C 3.148438 31.367188 2.699219 30.957031 2.625 30.621094 C 2.550781 30.28125 2.699219 29.738281 3 29.464844 C 3.300781 29.195312 3.898438 29.058594 4.273438 29.058594 C 4.648438 29.128906 5.101562 29.464844 5.324219 29.804688 C 5.476562 30.144531 5.398438 30.6875 5.25 30.957031 C 5.023438 31.296875 4.5 31.636719 4.125 31.570312 C 3.601562 31.570312 3 31.160156 2.625 30.347656 C 0.976562 27.023438 0.226562 4.367188 1.800781 1.25 C 2.25 0.503906 2.851562 0.164062 3.375 0.164062 C 3.824219 0.230469 4.726562 1.382812 4.726562 1.382812 " clip-rule="nonzero"/></clipPath><clipPath id="7e3aebdcb5"><rect x="0" width="6" y="0" height="32"/></clipPath><clipPath id="38b8ea7155"><path d="M 123.730469 102.910156 L 295.796875 102.910156 L 295.796875 129.289062 L 123.730469 129.289062 Z M 123.730469 102.910156 " clip-rule="nonzero"/></clipPath><clipPath id="e15857b9f6"><path d="M 126.386719 121.125 C 214.871094 121.351562 225.628906 122.550781 239.769531 122.851562 C 255.558594 123.226562 283.40625 121.648438 289.910156 122.773438 C 291.644531 123.074219 292.949219 123.675781 292.949219 123.898438 C 292.859375 124.125 290.777344 124.648438 289.996094 124.125 C 288.351562 123.148438 287.394531 117.449219 286.789062 114.75 C 286.355469 112.726562 288.003906 110.925781 286.09375 109.5 C 276.636719 102.226562 142.089844 112.351562 130.375 109.800781 C 128.816406 109.5 128.292969 109.199219 127.859375 108.675781 C 127.425781 108.226562 127.253906 107.550781 127.253906 107.023438 C 127.339844 106.5 127.601562 105.824219 128.035156 105.449219 C 128.554688 104.925781 129.855469 104.398438 130.722656 104.476562 C 131.589844 104.550781 132.71875 105.226562 133.152344 105.898438 C 133.5 106.574219 133.5 107.773438 133.152344 108.375 C 132.71875 109.050781 131.589844 109.800781 130.722656 109.800781 C 129.769531 109.800781 127.949219 108.898438 127.515625 108.148438 C 127.167969 107.476562 127.339844 106.273438 127.859375 105.675781 C 128.292969 105 128.816406 104.851562 130.375 104.476562 C 142.089844 101.925781 267.441406 103.125 284.53125 104.023438 C 287.914062 104.175781 289.390625 103.800781 290.691406 104.625 C 291.734375 105.375 291.90625 106.574219 292.339844 108 C 292.949219 110.25 292.601562 114.75 293.207031 116.773438 C 293.554688 117.976562 294.25 118.351562 294.683594 119.476562 C 295.203125 121.125 296.15625 124.273438 295.550781 125.773438 C 295.203125 126.824219 294.855469 127.5 293.292969 128.101562 C 287.136719 130.5 255.039062 128.398438 238.292969 127.949219 C 224.242188 127.574219 214.4375 126.300781 199.429688 125.925781 C 178.871094 125.324219 132.980469 126.824219 126.386719 125.773438 C 125.34375 125.625 125.085938 125.550781 124.652344 125.175781 C 124.21875 124.875 123.785156 124.273438 123.785156 123.75 C 123.695312 123.148438 124.128906 122.175781 124.652344 121.726562 C 125.085938 121.351562 126.386719 121.125 126.386719 121.125 " clip-rule="nonzero"/></clipPath><clipPath id="b5c0add8f0"><path d="M 0.730469 0.910156 L 172.796875 0.910156 L 172.796875 27.289062 L 0.730469 27.289062 Z M 0.730469 0.910156 " clip-rule="nonzero"/></clipPath><clipPath id="d542158e9f"><path d="M 3.386719 19.125 C 91.871094 19.351562 102.628906 20.550781 116.769531 20.851562 C 132.558594 21.226562 160.40625 19.648438 166.910156 20.773438 C 168.644531 21.074219 169.949219 21.675781 169.949219 21.898438 C 169.859375 22.125 167.777344 22.648438 166.996094 22.125 C 165.351562 21.148438 164.394531 15.449219 163.789062 12.75 C 163.355469 10.726562 165.003906 8.925781 163.09375 7.5 C 153.636719 0.226562 19.089844 10.351562 7.375 7.800781 C 5.816406 7.5 5.292969 7.199219 4.859375 6.675781 C 4.425781 6.226562 4.253906 5.550781 4.253906 5.023438 C 4.339844 4.5 4.601562 3.824219 5.035156 3.449219 C 5.554688 2.925781 6.855469 2.398438 7.722656 2.476562 C 8.589844 2.550781 9.71875 3.226562 10.152344 3.898438 C 10.5 4.574219 10.5 5.773438 10.152344 6.375 C 9.71875 7.050781 8.589844 7.800781 7.722656 7.800781 C 6.769531 7.800781 4.949219 6.898438 4.515625 6.148438 C 4.167969 5.476562 4.339844 4.273438 4.859375 3.675781 C 5.292969 3 5.816406 2.851562 7.375 2.476562 C 19.089844 -0.0742188 144.441406 1.125 161.53125 2.023438 C 164.914062 2.175781 166.390625 1.800781 167.691406 2.625 C 168.734375 3.375 168.90625 4.574219 169.339844 6 C 169.949219 8.25 169.601562 12.75 170.207031 14.773438 C 170.554688 15.976562 171.25 16.351562 171.683594 17.476562 C 172.203125 19.125 173.15625 22.273438 172.550781 23.773438 C 172.203125 24.824219 171.855469 25.5 170.292969 26.101562 C 164.136719 28.5 132.039062 26.398438 115.292969 25.949219 C 101.242188 25.574219 91.4375 24.300781 76.429688 23.925781 C 55.871094 23.324219 9.980469 24.824219 3.386719 23.773438 C 2.34375 23.625 2.085938 23.550781 1.652344 23.175781 C 1.21875 22.875 0.785156 22.273438 0.785156 21.75 C 0.695312 21.148438 1.128906 20.175781 1.652344 19.726562 C 2.085938 19.351562 3.386719 19.125 3.386719 19.125 " clip-rule="nonzero"/></clipPath><clipPath id="a122fed610"><rect x="0" width="173" y="0" height="28"/></clipPath><clipPath id="630de91e75"><path d="M 98.117188 103.90625 L 117.335938 103.90625 L 117.335938 125.046875 L 98.117188 125.046875 Z M 98.117188 103.90625 " clip-rule="nonzero"/></clipPath><clipPath id="384e4858c1"><path d="M 114.988281 109.273438 C 101.789062 110.699219 102.011719 117.148438 103.738281 119.023438 C 105.539062 120.898438 112.964844 118.425781 114.613281 119.699219 C 115.4375 120.449219 115.738281 122.023438 115.4375 122.773438 C 115.136719 123.601562 113.488281 124.425781 112.664062 124.425781 C 112.136719 124.5 111.539062 124.125 111.164062 123.75 C 110.714844 123.226562 110.261719 122.101562 110.339844 121.425781 C 110.488281 120.675781 111.238281 119.699219 111.839844 119.398438 C 112.511719 119.101562 113.714844 119.101562 114.3125 119.550781 C 115.0625 120.074219 115.738281 121.726562 115.511719 122.550781 C 115.289062 123.375 114.238281 124.050781 112.964844 124.5 C 110.5625 125.25 103.589844 125.175781 101.261719 124.273438 C 100.0625 123.898438 99.539062 123.523438 99.011719 122.398438 C 97.8125 119.773438 97.964844 109.875 98.714844 107.175781 C 99.011719 106.125 99.3125 105.601562 99.988281 105.074219 C 100.8125 104.476562 101.9375 104.25 103.4375 104.023438 C 106.289062 103.726562 113.5625 104.101562 115.511719 104.773438 C 116.261719 105 116.5625 105.300781 116.863281 105.675781 C 117.164062 106.125 117.3125 106.800781 117.238281 107.25 C 117.164062 107.773438 116.863281 108.375 116.488281 108.75 C 116.113281 109.050781 114.988281 109.273438 114.988281 109.273438 " clip-rule="nonzero"/></clipPath><clipPath id="11f5eb1d74"><path d="M 0.117188 0.90625 L 19.335938 0.90625 L 19.335938 22.046875 L 0.117188 22.046875 Z M 0.117188 0.90625 " clip-rule="nonzero"/></clipPath><clipPath id="7e37c0ab95"><path d="M 16.988281 6.273438 C 3.789062 7.699219 4.011719 14.148438 5.738281 16.023438 C 7.539062 17.898438 14.964844 15.425781 16.613281 16.699219 C 17.4375 17.449219 17.738281 19.023438 17.4375 19.773438 C 17.136719 20.601562 15.488281 21.425781 14.664062 21.425781 C 14.136719 21.5 13.539062 21.125 13.164062 20.75 C 12.714844 20.226562 12.261719 19.101562 12.339844 18.425781 C 12.488281 17.675781 13.238281 16.699219 13.839844 16.398438 C 14.511719 16.101562 15.714844 16.101562 16.3125 16.550781 C 17.0625 17.074219 17.738281 18.726562 17.511719 19.550781 C 17.289062 20.375 16.238281 21.050781 14.964844 21.5 C 12.5625 22.25 5.589844 22.175781 3.261719 21.273438 C 2.0625 20.898438 1.539062 20.523438 1.011719 19.398438 C -0.1875 16.773438 -0.0351562 6.875 0.714844 4.175781 C 1.011719 3.125 1.3125 2.601562 1.988281 2.074219 C 2.8125 1.476562 3.9375 1.25 5.4375 1.023438 C 8.289062 0.726562 15.5625 1.101562 17.511719 1.773438 C 18.261719 2 18.5625 2.300781 18.863281 2.675781 C 19.164062 3.125 19.3125 3.800781 19.238281 4.25 C 19.164062 4.773438 18.863281 5.375 18.488281 5.75 C 18.113281 6.050781 16.988281 6.273438 16.988281 6.273438 " clip-rule="nonzero"/></clipPath><clipPath id="f95297e68f"><rect x="0" width="20" y="0" height="23"/></clipPath><clipPath id="a22f1109c1"><path d="M 112.722656 93.296875 L 128.226562 93.296875 L 128.226562 98.609375 L 112.722656 98.609375 Z M 112.722656 93.296875 " clip-rule="nonzero"/></clipPath><clipPath id="c65ecea6ca"><path d="M 125.851562 98.476562 C 113.550781 98.101562 112.949219 97.5 112.875 96.824219 C 112.726562 96.074219 113.25 94.5 113.925781 94.050781 C 114.601562 93.675781 116.25 93.898438 116.851562 94.425781 C 117.375 94.800781 117.75 95.925781 117.601562 96.523438 C 117.375 97.273438 116.175781 98.398438 115.425781 98.550781 C 114.75 98.699219 113.773438 98.25 113.324219 97.726562 C 112.875 97.199219 112.574219 96.148438 112.875 95.550781 C 113.101562 94.800781 114 94.125 115.199219 93.75 C 117.523438 93 125.175781 93.300781 126.976562 94.125 C 127.648438 94.425781 127.875 94.875 128.023438 95.324219 C 128.25 95.851562 128.324219 96.523438 128.023438 96.976562 C 127.726562 97.574219 125.851562 98.476562 125.851562 98.476562 " clip-rule="nonzero"/></clipPath><clipPath id="4ba50da5aa"><path d="M 0.722656 0.296875 L 16.226562 0.296875 L 16.226562 5.609375 L 0.722656 5.609375 Z M 0.722656 0.296875 " clip-rule="nonzero"/></clipPath><clipPath id="800eb6b3c1"><path d="M 13.851562 5.476562 C 1.550781 5.101562 0.949219 4.5 0.875 3.824219 C 0.726562 3.074219 1.25 1.5 1.925781 1.050781 C 2.601562 0.675781 4.25 0.898438 4.851562 1.425781 C 5.375 1.800781 5.75 2.925781 5.601562 3.523438 C 5.375 4.273438 4.175781 5.398438 3.425781 5.550781 C 2.75 5.699219 1.773438 5.25 1.324219 4.726562 C 0.875 4.199219 0.574219 3.148438 0.875 2.550781 C 1.101562 1.800781 2 1.125 3.199219 0.75 C 5.523438 0 13.175781 0.300781 14.976562 1.125 C 15.648438 1.425781 15.875 1.875 16.023438 2.324219 C 16.25 2.851562 16.324219 3.523438 16.023438 3.976562 C 15.726562 4.574219 13.851562 5.476562 13.851562 5.476562 " clip-rule="nonzero"/></clipPath><clipPath id="29421fcfda"><rect x="0" width="17" y="0" height="6"/></clipPath><clipPath id="4a0493d857"><path d="M 243.007812 151.003906 L 280.769531 151.003906 L 280.769531 195 L 243.007812 195 Z M 243.007812 151.003906 " clip-rule="nonzero"/></clipPath><clipPath id="508d9293b5"><path d="M 264.226562 154.273438 C 254.699219 158.101562 252.824219 159.75 251.25 161.550781 C 249.75 163.273438 248.324219 165.300781 247.574219 167.476562 C 246.824219 169.574219 246.523438 172.199219 246.824219 174.300781 C 247.050781 176.25 248.101562 178.125 249 179.773438 C 249.824219 181.425781 250.574219 182.851562 252 184.273438 C 253.726562 186.148438 256.425781 188.550781 259.050781 189.675781 C 261.601562 190.800781 264.898438 191.773438 267.300781 191.324219 C 269.476562 190.875 271.574219 189 273.074219 187.5 C 274.351562 186.226562 275.324219 185.101562 276 183.300781 C 276.976562 180.976562 277.273438 176.773438 277.050781 174.226562 C 276.898438 172.351562 276.375 171.226562 275.625 169.425781 C 274.5 166.800781 272.550781 162.898438 270.675781 160.425781 C 269.101562 158.476562 266.699219 157.125 265.574219 155.699219 C 264.824219 154.726562 264.148438 153.824219 264.148438 153 C 264.148438 152.324219 264.675781 151.351562 265.199219 151.125 C 265.726562 150.898438 267 151.199219 267.375 151.648438 C 267.675781 152.175781 267.449219 153.898438 266.925781 154.199219 C 266.476562 154.574219 264.675781 154.199219 264.375 153.75 C 264.074219 153.226562 264.523438 151.5 265.050781 151.199219 C 265.5 150.898438 266.398438 151.050781 267.226562 151.5 C 269.25 152.699219 273.523438 158.851562 275.550781 161.773438 C 276.824219 163.726562 277.574219 165.074219 278.398438 167.023438 C 279.300781 169.199219 280.351562 171.601562 280.648438 174.226562 C 280.875 177.074219 280.273438 181.199219 279.601562 183.523438 C 279.226562 184.949219 278.851562 185.699219 278.023438 186.824219 C 276.898438 188.476562 274.875 190.800781 273.074219 192.148438 C 271.574219 193.351562 270 194.476562 268.199219 194.851562 C 266.175781 195.226562 263.699219 194.851562 261.449219 194.175781 C 258.75 193.425781 255.601562 191.925781 253.199219 190.125 C 250.875 188.398438 249 186.148438 247.351562 183.75 C 245.625 181.199219 243.898438 177.675781 243.300781 175.125 C 242.925781 173.175781 243.148438 171.675781 243.375 169.949219 C 243.675781 168.148438 243.976562 166.574219 244.949219 164.699219 C 246.300781 162.074219 249.300781 158.324219 251.773438 156.226562 C 253.800781 154.5 256.125 153.449219 258.226562 152.625 C 260.023438 151.875 262.125 151.125 263.476562 151.199219 C 264.375 151.273438 265.351562 151.726562 265.648438 152.25 C 265.875 152.625 265.726562 153.300781 265.5 153.601562 C 265.273438 153.976562 264.226562 154.273438 264.226562 154.273438 " clip-rule="nonzero"/></clipPath><clipPath id="5546abb2e2"><path d="M 0.0078125 0.00390625 L 37.769531 0.00390625 L 37.769531 44 L 0.0078125 44 Z M 0.0078125 0.00390625 " clip-rule="nonzero"/></clipPath><clipPath id="834b114713"><path d="M 21.226562 3.273438 C 11.699219 7.101562 9.824219 8.75 8.25 10.550781 C 6.75 12.273438 5.324219 14.300781 4.574219 16.476562 C 3.824219 18.574219 3.523438 21.199219 3.824219 23.300781 C 4.050781 25.25 5.101562 27.125 6 28.773438 C 6.824219 30.425781 7.574219 31.851562 9 33.273438 C 10.726562 35.148438 13.425781 37.550781 16.050781 38.675781 C 18.601562 39.800781 21.898438 40.773438 24.300781 40.324219 C 26.476562 39.875 28.574219 38 30.074219 36.5 C 31.351562 35.226562 32.324219 34.101562 33 32.300781 C 33.976562 29.976562 34.273438 25.773438 34.050781 23.226562 C 33.898438 21.351562 33.375 20.226562 32.625 18.425781 C 31.5 15.800781 29.550781 11.898438 27.675781 9.425781 C 26.101562 7.476562 23.699219 6.125 22.574219 4.699219 C 21.824219 3.726562 21.148438 2.824219 21.148438 2 C 21.148438 1.324219 21.675781 0.351562 22.199219 0.125 C 22.726562 -0.101562 24 0.199219 24.375 0.648438 C 24.675781 1.175781 24.449219 2.898438 23.925781 3.199219 C 23.476562 3.574219 21.675781 3.199219 21.375 2.75 C 21.074219 2.226562 21.523438 0.5 22.050781 0.199219 C 22.5 -0.101562 23.398438 0.0507812 24.226562 0.5 C 26.25 1.699219 30.523438 7.851562 32.550781 10.773438 C 33.824219 12.726562 34.574219 14.074219 35.398438 16.023438 C 36.300781 18.199219 37.351562 20.601562 37.648438 23.226562 C 37.875 26.074219 37.273438 30.199219 36.601562 32.523438 C 36.226562 33.949219 35.851562 34.699219 35.023438 35.824219 C 33.898438 37.476562 31.875 39.800781 30.074219 41.148438 C 28.574219 42.351562 27 43.476562 25.199219 43.851562 C 23.175781 44.226562 20.699219 43.851562 18.449219 43.175781 C 15.75 42.425781 12.601562 40.925781 10.199219 39.125 C 7.875 37.398438 6 35.148438 4.351562 32.75 C 2.625 30.199219 0.898438 26.675781 0.300781 24.125 C -0.0742188 22.175781 0.148438 20.675781 0.375 18.949219 C 0.675781 17.148438 0.976562 15.574219 1.949219 13.699219 C 3.300781 11.074219 6.300781 7.324219 8.773438 5.226562 C 10.800781 3.5 13.125 2.449219 15.226562 1.625 C 17.023438 0.875 19.125 0.125 20.476562 0.199219 C 21.375 0.273438 22.351562 0.726562 22.648438 1.25 C 22.875 1.625 22.726562 2.300781 22.5 2.601562 C 22.273438 2.976562 21.226562 3.273438 21.226562 3.273438 " clip-rule="nonzero"/></clipPath><clipPath id="195e222cee"><rect x="0" width="38" y="0" height="44"/></clipPath><clipPath id="09288cb1b9"><path d="M 260 147 L 269 147 L 269 153 L 260 153 Z M 260 147 " clip-rule="nonzero"/></clipPath><clipPath id="5fe9f46357"><path d="M 259.800781 150.382812 L 267.273438 146.933594 L 268.84375 150.335938 L 261.371094 153.785156 Z M 259.800781 150.382812 " clip-rule="nonzero"/></clipPath><clipPath id="21a57b33d8"><path d="M 263.535156 148.65625 C 265.597656 147.707031 267.621094 147.699219 268.054688 148.636719 C 268.488281 149.578125 267.167969 151.113281 265.105469 152.0625 C 263.042969 153.015625 261.019531 153.023438 260.585938 152.082031 C 260.152344 151.144531 261.472656 149.609375 263.535156 148.65625 Z M 263.535156 148.65625 " clip-rule="nonzero"/></clipPath><clipPath id="5f6b6cd8a5"><path d="M 0 0.601562 L 8.558594 0.601562 L 8.558594 6 L 0 6 Z M 0 0.601562 " clip-rule="nonzero"/></clipPath><clipPath id="dbb3f242e1"><path d="M -0.199219 3.382812 L 7.273438 -0.0664062 L 8.84375 3.335938 L 1.371094 6.785156 Z M -0.199219 3.382812 " clip-rule="nonzero"/></clipPath><clipPath id="b280166aa2"><path d="M 3.535156 1.65625 C 5.597656 0.707031 7.621094 0.699219 8.054688 1.636719 C 8.488281 2.578125 7.167969 4.113281 5.105469 5.0625 C 3.042969 6.015625 1.019531 6.023438 0.585938 5.082031 C 0.152344 4.144531 1.472656 2.609375 3.535156 1.65625 Z M 3.535156 1.65625 " clip-rule="nonzero"/></clipPath><clipPath id="f8161f945c"><rect x="0" width="9" y="0" height="6"/></clipPath><clipPath id="18faa8e2ae"><path d="M 260 145 L 269 145 L 269 151 L 260 151 Z M 260 145 " clip-rule="nonzero"/></clipPath><clipPath id="92dc7db825"><path d="M 259.800781 148.003906 L 267.273438 144.554688 L 268.84375 147.960938 L 261.371094 151.410156 Z M 259.800781 148.003906 " clip-rule="nonzero"/></clipPath><clipPath id="11e388cc70"><path d="M 263.535156 146.28125 C 265.597656 145.332031 267.621094 145.320312 268.054688 146.261719 C 268.488281 147.203125 267.167969 148.734375 265.105469 149.6875 C 263.042969 150.640625 261.019531 150.648438 260.585938 149.707031 C 260.152344 148.769531 261.472656 147.234375 263.535156 146.28125 Z M 263.535156 146.28125 " clip-rule="nonzero"/></clipPath><clipPath id="e737577052"><path d="M 0 0.199219 L 8.558594 0.199219 L 8.558594 5.71875 L 0 5.71875 Z M 0 0.199219 " clip-rule="nonzero"/></clipPath><clipPath id="92a3c643a8"><path d="M -0.199219 3.003906 L 7.273438 -0.445312 L 8.84375 2.960938 L 1.371094 6.410156 Z M -0.199219 3.003906 " clip-rule="nonzero"/></clipPath><clipPath id="08696ac617"><path d="M 3.535156 1.28125 C 5.597656 0.332031 7.621094 0.320312 8.054688 1.261719 C 8.488281 2.203125 7.167969 3.734375 5.105469 4.6875 C 3.042969 5.640625 1.019531 5.648438 0.585938 4.707031 C 0.152344 3.769531 1.472656 2.234375 3.535156 1.28125 Z M 3.535156 1.28125 " clip-rule="nonzero"/></clipPath><clipPath id="61fd8cad50"><rect x="0" width="9" y="0" height="6"/></clipPath><clipPath id="47fedea01c"><path d="M 260 143 L 269 143 L 269 149 L 260 149 Z M 260 143 " clip-rule="nonzero"/></clipPath><clipPath id="04369decfe"><path d="M 259.800781 145.90625 L 267.273438 142.457031 L 268.84375 145.863281 L 261.371094 149.3125 Z M 259.800781 145.90625 " clip-rule="nonzero"/></clipPath><clipPath id="788fe91138"><path d="M 263.535156 144.183594 C 265.597656 143.230469 267.621094 143.222656 268.054688 144.160156 C 268.488281 145.101562 267.167969 146.636719 265.105469 147.585938 C 263.042969 148.539062 261.019531 148.546875 260.585938 147.609375 C 260.152344 146.667969 261.472656 145.132812 263.535156 144.183594 Z M 263.535156 144.183594 " clip-rule="nonzero"/></clipPath><clipPath id="5561f736ac"><path d="M 0 0.0390625 L 8.558594 0.0390625 L 8.558594 5.558594 L 0 5.558594 Z M 0 0.0390625 " clip-rule="nonzero"/></clipPath><clipPath id="bcdc5e69cb"><path d="M -0.199219 2.90625 L 7.273438 -0.542969 L 8.84375 2.863281 L 1.371094 6.3125 Z M -0.199219 2.90625 " clip-rule="nonzero"/></clipPath><clipPath id="78d3651013"><path d="M 3.535156 1.183594 C 5.597656 0.230469 7.621094 0.222656 8.054688 1.160156 C 8.488281 2.101562 7.167969 3.636719 5.105469 4.585938 C 3.042969 5.539062 1.019531 5.546875 0.585938 4.609375 C 0.152344 3.667969 1.472656 2.132812 3.535156 1.183594 Z M 3.535156 1.183594 " clip-rule="nonzero"/></clipPath><clipPath id="c2f2481cba"><rect x="0" width="9" y="0" height="6"/></clipPath><clipPath id="9aeb95e6ee"><path d="M 260 141 L 269 141 L 269 146 L 260 146 Z M 260 141 " clip-rule="nonzero"/></clipPath><clipPath id="cbd4cb7800"><path d="M 259.800781 143.53125 L 267.273438 140.082031 L 268.84375 143.484375 L 261.371094 146.933594 Z M 259.800781 143.53125 " clip-rule="nonzero"/></clipPath><clipPath id="5e9a65dd5a"><path d="M 263.535156 141.808594 C 265.597656 140.855469 267.621094 140.847656 268.054688 141.785156 C 268.488281 142.726562 267.167969 144.261719 265.105469 145.210938 C 263.042969 146.164062 261.019531 146.171875 260.585938 145.234375 C 260.152344 144.292969 261.472656 142.757812 263.535156 141.808594 Z M 263.535156 141.808594 " clip-rule="nonzero"/></clipPath><clipPath id="9e850b9f30"><path d="M 0 0 L 8.558594 0 L 8.558594 5 L 0 5 Z M 0 0 " clip-rule="nonzero"/></clipPath><clipPath id="ef637a5d46"><path d="M -0.199219 2.53125 L 7.273438 -0.917969 L 8.84375 2.484375 L 1.371094 5.933594 Z M -0.199219 2.53125 " clip-rule="nonzero"/></clipPath><clipPath id="12ef9171f0"><path d="M 3.535156 0.808594 C 5.597656 -0.144531 7.621094 -0.152344 8.054688 0.785156 C 8.488281 1.726562 7.167969 3.261719 5.105469 4.210938 C 3.042969 5.164062 1.019531 5.171875 0.585938 4.234375 C 0.152344 3.292969 1.472656 1.757812 3.535156 0.808594 Z M 3.535156 0.808594 " clip-rule="nonzero"/></clipPath><clipPath id="3127054879"><rect x="0" width="9" y="0" height="5"/></clipPath><clipPath id="f251b89144"><path d="M 240.300781 151.414062 L 286.738281 151.414062 L 286.738281 197.851562 L 240.300781 197.851562 Z M 240.300781 151.414062 " clip-rule="nonzero"/></clipPath><clipPath id="6da49bbe9e"><path d="M 263.519531 151.414062 C 250.695312 151.414062 240.300781 161.808594 240.300781 174.632812 C 240.300781 187.453125 250.695312 197.851562 263.519531 197.851562 C 276.34375 197.851562 286.738281 187.453125 286.738281 174.632812 C 286.738281 161.808594 276.34375 151.414062 263.519531 151.414062 Z M 263.519531 151.414062 " clip-rule="nonzero"/></clipPath><clipPath id="e366620520"><path d="M 0.300781 0.414062 L 46.738281 0.414062 L 46.738281 46.851562 L 0.300781 46.851562 Z M 0.300781 0.414062 " clip-rule="nonzero"/></clipPath><clipPath id="e634309ced"><path d="M 23.519531 0.414062 C 10.695312 0.414062 0.300781 10.808594 0.300781 23.632812 C 0.300781 36.453125 10.695312 46.851562 23.519531 46.851562 C 36.34375 46.851562 46.738281 36.453125 46.738281 23.632812 C 46.738281 10.808594 36.34375 0.414062 23.519531 0.414062 Z M 23.519531 0.414062 " clip-rule="nonzero"/></clipPath><clipPath id="0098cba07f"><rect x="0" width="47" y="0" height="47"/></clipPath><clipPath id="f6eaed463a"><path d="M 256.144531 195.421875 L 270.890625 195.421875 L 270.890625 200.195312 L 256.144531 200.195312 Z M 256.144531 195.421875 " clip-rule="nonzero"/></clipPath><clipPath id="50486d792c"><path d="M 258.644531 195.488281 C 263.667969 196.6875 268.46875 195.039062 269.820312 195.710938 C 270.492188 196.011719 270.792969 196.835938 270.867188 197.363281 C 270.945312 197.8125 270.792969 198.335938 270.492188 198.636719 C 270.042969 199.085938 268.769531 199.6875 268.09375 199.460938 C 267.492188 199.238281 266.667969 198.039062 266.667969 197.363281 C 266.667969 196.835938 267.195312 196.011719 267.71875 195.710938 C 268.167969 195.414062 269.144531 195.335938 269.667969 195.5625 C 270.195312 195.9375 270.867188 197.136719 270.867188 197.8125 C 270.792969 198.414062 270.269531 199.011719 269.667969 199.386719 C 268.84375 199.914062 267.570312 200.0625 266.21875 200.136719 C 264.117188 200.289062 259.917969 199.761719 258.34375 199.386719 C 257.59375 199.164062 257.144531 199.085938 256.769531 198.710938 C 256.394531 198.335938 256.167969 197.511719 256.167969 196.988281 C 256.242188 196.613281 256.542969 196.085938 256.84375 195.863281 C 257.292969 195.5625 258.644531 195.488281 258.644531 195.488281 " clip-rule="nonzero"/></clipPath><clipPath id="700da3c64b"><path d="M 0.144531 0.421875 L 14.890625 0.421875 L 14.890625 5.195312 L 0.144531 5.195312 Z M 0.144531 0.421875 " clip-rule="nonzero"/></clipPath><clipPath id="3a4b0cdcf5"><path d="M 2.644531 0.488281 C 7.667969 1.6875 12.46875 0.0390625 13.820312 0.710938 C 14.492188 1.011719 14.792969 1.835938 14.867188 2.363281 C 14.945312 2.8125 14.792969 3.335938 14.492188 3.636719 C 14.042969 4.085938 12.769531 4.6875 12.09375 4.460938 C 11.492188 4.238281 10.667969 3.039062 10.667969 2.363281 C 10.667969 1.835938 11.195312 1.011719 11.71875 0.710938 C 12.167969 0.414062 13.144531 0.335938 13.667969 0.5625 C 14.195312 0.9375 14.867188 2.136719 14.867188 2.8125 C 14.792969 3.414062 14.269531 4.011719 13.667969 4.386719 C 12.84375 4.914062 11.570312 5.0625 10.21875 5.136719 C 8.117188 5.289062 3.917969 4.761719 2.34375 4.386719 C 1.59375 4.164062 1.144531 4.085938 0.769531 3.710938 C 0.394531 3.335938 0.167969 2.511719 0.167969 1.988281 C 0.242188 1.613281 0.542969 1.085938 0.84375 0.863281 C 1.292969 0.5625 2.644531 0.488281 2.644531 0.488281 " clip-rule="nonzero"/></clipPath><clipPath id="2e81a6bb2a"><rect x="0" width="15" y="0" height="6"/></clipPath></defs><g clip-path="url(#eeb22eee8b)"><g clip-path="url(#9a07c21b00)"><g transform="matrix(1, 0, 0, 1, 80, 286)"><g clip-path="url(#9907526032)"><g clip-path="url(#065373945d)"><g clip-path="url(#1648796f40)"><rect x="-159.2" width="518.4" fill="#1e1e1e" height="518.399981" y="-365.199997" fill-opacity="1"/></g></g></g></g></g></g><g clip-path="url(#0d8a0f14d3)"><g clip-path="url(#e4174be383)"><g transform="matrix(1, 0, 0, 1, 104, 93)"><g clip-path="url(#dc3d92cdae)"><g clip-path="url(#ec0e6b9f06)"><g clip-path="url(#d44acb77d6)"><rect x="-183.2" width="518.4" fill="#1e1e1e" height="518.399981" y="-172.199997" fill-opacity="1"/></g></g></g></g></g></g><g clip-path="url(#3826abff73)"><g clip-path="url(#4b4e318237)"><g transform="matrix(1, 0, 0, 1, 116, 93)"><g clip-path="url(#82f71f6f14)"><g clip-path="url(#dd5f766ccc)"><g clip-path="url(#e1fb1b2d55)"><rect x="-195.2" width="518.4" fill="#1e1e1e" height="518.399981" y="-172.199997" fill-opacity="1"/></g></g></g></g></g></g><g clip-path="url(#77f182348f)"><g clip-path="url(#508e8be083)"><g transform="matrix(1, 0, 0, 1, 261, 123)"><g clip-path="url(#7e3aebdcb5)"><g clip-path="url(#d9bd4a862a)"><g clip-path="url(#d35361fccb)"><rect x="-340.2" width="518.4" fill="#ffa629" height="518.399981" y="-202.199997" fill-opacity="1"/></g></g></g></g></g></g><g clip-path="url(#38b8ea7155)"><g clip-path="url(#e15857b9f6)"><g transform="matrix(1, 0, 0, 1, 123, 102)"><g clip-path="url(#a122fed610)"><g clip-path="url(#b5c0add8f0)"><g clip-path="url(#d542158e9f)"><rect x="-202.2" width="518.4" fill="#1e1e1e" height="518.399981" y="-181.199997" fill-opacity="1"/></g></g></g></g></g></g><g clip-path="url(#630de91e75)"><g clip-path="url(#384e4858c1)"><g transform="matrix(1, 0, 0, 1, 98, 103)"><g clip-path="url(#f95297e68f)"><g clip-path="url(#11f5eb1d74)"><g clip-path="url(#7e37c0ab95)"><rect x="-177.2" width="518.4" fill="#1e1e1e" height="518.399981" y="-182.199997" fill-opacity="1"/></g></g></g></g></g></g><g clip-path="url(#a22f1109c1)"><g clip-path="url(#c65ecea6ca)"><g transform="matrix(1, 0, 0, 1, 112, 93)"><g clip-path="url(#29421fcfda)"><g clip-path="url(#4ba50da5aa)"><g clip-path="url(#800eb6b3c1)"><rect x="-191.2" width="518.4" fill="#1e1e1e" height="518.399981" y="-172.199997" fill-opacity="1"/></g></g></g></g></g></g><g clip-path="url(#4a0493d857)"><g clip-path="url(#508d9293b5)"><g transform="matrix(1, 0, 0, 1, 243, 151)"><g clip-path="url(#195e222cee)"><g clip-path="url(#5546abb2e2)"><g clip-path="url(#834b114713)"><rect x="-322.2" width="518.4" fill="#ffa629" height="518.399981" y="-230.199997" fill-opacity="1"/></g></g></g></g></g></g><g clip-path="url(#09288cb1b9)"><g clip-path="url(#5fe9f46357)"><g clip-path="url(#21a57b33d8)"><g transform="matrix(1, 0, 0, 1, 260, 147)"><g clip-path="url(#f8161f945c)"><g clip-path="url(#5f6b6cd8a5)"><g clip-path="url(#dbb3f242e1)"><g clip-path="url(#b280166aa2)"><path fill="#ffa629" d="M -0.199219 3.382812 L 7.273438 -0.0664062 L 8.84375 3.335938 L 1.371094 6.785156 Z M -0.199219 3.382812 " fill-opacity="1" fill-rule="nonzero"/></g></g></g></g></g></g></g></g><g clip-path="url(#18faa8e2ae)"><g clip-path="url(#92dc7db825)"><g clip-path="url(#11e388cc70)"><g transform="matrix(1, 0, 0, 1, 260, 145)"><g clip-path="url(#61fd8cad50)"><g clip-path="url(#e737577052)"><g clip-path="url(#92a3c643a8)"><g clip-path="url(#08696ac617)"><path fill="#ffa629" d="M -0.199219 3.003906 L 7.273438 -0.445312 L 8.84375 2.960938 L 1.371094 6.410156 Z M -0.199219 3.003906 " fill-opacity="1" fill-rule="nonzero"/></g></g></g></g></g></g></g></g><g clip-path="url(#47fedea01c)"><g clip-path="url(#04369decfe)"><g clip-path="url(#788fe91138)"><g transform="matrix(1, 0, 0, 1, 260, 143)"><g clip-path="url(#c2f2481cba)"><g clip-path="url(#5561f736ac)"><g clip-path="url(#bcdc5e69cb)"><g clip-path="url(#78d3651013)"><path fill="#ffa629" d="M -0.199219 2.90625 L 7.273438 -0.542969 L 8.84375 2.863281 L 1.371094 6.3125 Z M -0.199219 2.90625 " fill-opacity="1" fill-rule="nonzero"/></g></g></g></g></g></g></g></g><g clip-path="url(#9aeb95e6ee)"><g clip-path="url(#cbd4cb7800)"><g clip-path="url(#5e9a65dd5a)"><g transform="matrix(1, 0, 0, 1, 260, 141)"><g clip-path="url(#3127054879)"><g clip-path="url(#9e850b9f30)"><g clip-path="url(#ef637a5d46)"><g clip-path="url(#12ef9171f0)"><path fill="#ffa629" d="M -0.199219 2.53125 L 7.273438 -0.917969 L 8.84375 2.484375 L 1.371094 5.933594 Z M -0.199219 2.53125 " fill-opacity="1" fill-rule="nonzero"/></g></g></g></g></g></g></g></g><g clip-path="url(#f251b89144)"><g clip-path="url(#6da49bbe9e)"><g transform="matrix(1, 0, 0, 1, 240, 151)"><g clip-path="url(#0098cba07f)"><g clip-path="url(#e366620520)"><g clip-path="url(#e634309ced)"><path fill="#737373" d="M 0.300781 0.414062 L 46.738281 0.414062 L 46.738281 46.851562 L 0.300781 46.851562 Z M 0.300781 0.414062 " fill-opacity="1" fill-rule="nonzero"/></g></g></g></g></g></g><g clip-path="url(#f6eaed463a)"><g clip-path="url(#50486d792c)"><g transform="matrix(1, 0, 0, 1, 256, 195)"><g clip-path="url(#2e81a6bb2a)"><g clip-path="url(#700da3c64b)"><g clip-path="url(#3a4b0cdcf5)"><rect x="-335.2" width="518.4" fill="#ffa629" height="518.399981" y="-274.199997" fill-opacity="1"/></g></g></g></g></g></g></svg>